<svg width="130" height="130" viewBox="0 0 130 130" fill="none" xmlns="http://www.w3.org/2000/svg">
    <path
        d="M69.5529 78.841C69.5529 70.1154 53.6085 49.0547 53.6085 49.0547C53.6085 49.0547 37.6641 70.1154 37.6641 78.841C37.6641 83.0234 39.3439 87.0344 42.3341 89.9916C45.3242 92.9489 49.3798 94.6102 53.6085 94.6102C57.8372 94.6102 61.8928 92.9489 64.883 89.9916C67.8731 87.0344 69.5529 83.0234 69.5529 78.841Z"
        stroke-width="3" stroke-linecap="round" stroke-linejoin="round" vector-effect="non-scaling-stroke" />
    <path
        d="M91.191 53.6545C91.191 48.6372 82.0799 36.5273 82.0799 36.5273C82.0799 36.5273 72.9688 48.6372 72.9688 53.6545C72.9688 56.0593 73.9287 58.3657 75.6373 60.0661C77.346 61.7665 79.6635 62.7218 82.0799 62.7218C84.4963 62.7218 86.8137 61.7665 88.5224 60.0661C90.2311 58.3657 91.191 56.0593 91.191 53.6545Z"
        stroke-width="3" stroke-linecap="round" stroke-linejoin="round" vector-effect="non-scaling-stroke" />
</svg>