<svg width="61" height="61" viewBox="0 0 61 61" fill="none" xmlns="http://www.w3.org/2000/svg">
    <path
        d="M30.5018 46.7659C14.7801 46.7659 2.03516 41.221 2.03516 34.3829C2.03516 31.8148 3.83466 29.4277 6.91516 27.4492M42.8381 45.5459C52.3805 43.5471 58.9685 39.2995 58.9685 34.3829C58.9685 31.8148 57.169 29.4277 54.0885 27.4492"
        stroke="currentColor" stroke-width="1.5" vector-effect="non-scaling-stroke" />
    <path
        d="M55.9177 16.7768C57.8829 16.7768 59.476 15.1837 59.476 13.2185C59.476 11.2533 57.8829 9.66016 55.9177 9.66016C53.9525 9.66016 52.3594 11.2533 52.3594 13.2185C52.3594 15.1837 53.9525 16.7768 55.9177 16.7768Z"
        stroke="currentColor" stroke-width="1.5" vector-effect="non-scaling-stroke" />
    <path d="M24.3984 38.6328L32.5318 46.7661L24.3984 54.8995" stroke="currentColor" stroke-width="1.5"
        vector-effect="non-scaling-stroke" />
    <path
        d="M16.4034 33.2287C15.3144 33.2287 14.3697 33.0463 13.5692 32.6815C12.7743 32.3112 12.1808 31.7966 11.7887 31.1378C11.3967 30.4735 11.2578 29.7003 11.3722 28.8182H13.3977C13.3487 29.3518 13.4413 29.8146 13.6754 30.2067C13.915 30.5987 14.2689 30.9009 14.7372 31.1133C15.2109 31.3256 15.7772 31.4318 16.4361 31.4318C17.1385 31.4318 17.7973 31.3093 18.4126 31.0643C19.0334 30.8192 19.5534 30.4653 19.9727 30.0025C20.3919 29.5342 20.6506 28.9761 20.7486 28.3281C20.8357 27.7455 20.7704 27.2282 20.5526 26.7763C20.3348 26.3243 19.959 25.9704 19.4254 25.7145C18.8973 25.4531 18.2057 25.3224 17.3509 25.3224H15.9787L16.2727 23.5256H17.5469C18.2112 23.5256 18.821 23.4003 19.3764 23.1499C19.9318 22.8994 20.3946 22.5482 20.7649 22.0962C21.1352 21.6388 21.3693 21.1025 21.4673 20.4872C21.5599 19.9482 21.5218 19.4799 21.353 19.0824C21.1896 18.6795 20.9065 18.3664 20.5036 18.1431C20.1061 17.9199 19.5997 17.8082 18.9844 17.8082C18.3963 17.8082 17.8191 17.9144 17.2528 18.1268C16.692 18.3337 16.2128 18.6359 15.8153 19.0334C15.4179 19.4254 15.1674 19.8991 15.0639 20.4545H13.1037C13.2725 19.5833 13.6509 18.8183 14.239 18.1594C14.8271 17.4951 15.5431 16.9779 16.3871 16.6076C17.2365 16.2319 18.1349 16.044 19.0824 16.044C20.1333 16.044 20.9991 16.2618 21.6797 16.6974C22.3658 17.1276 22.8558 17.6939 23.1499 18.3963C23.4439 19.0933 23.5256 19.8447 23.3949 20.6506C23.2479 21.5708 22.8694 22.3494 22.2596 22.9865C21.6497 23.6236 20.9065 24.0755 20.0298 24.3423V24.4403C21.0589 24.62 21.8049 25.0938 22.2678 25.8615C22.736 26.6238 22.883 27.5331 22.7088 28.5895C22.5563 29.5369 22.1888 30.3591 21.6062 31.0561C21.0236 31.7476 20.2857 32.284 19.3928 32.6651C18.4998 33.0408 17.5033 33.2287 16.4034 33.2287ZM30.2926 33.2287C29.5902 33.2232 28.9096 33.0898 28.2507 32.8285C27.5918 32.5671 27.0228 32.1342 26.5437 31.5298C26.0645 30.92 25.7351 30.0951 25.5554 29.055C25.3811 28.015 25.4247 26.7164 25.6861 25.1591C25.9311 23.6944 26.2823 22.3984 26.7397 21.2713C27.2025 20.1387 27.7552 19.1858 28.3977 18.4126C29.0402 17.634 29.7617 17.0459 30.5621 16.6484C31.368 16.2455 32.2365 16.044 33.1676 16.044C34.0933 16.044 34.8964 16.2319 35.577 16.6076C36.2631 16.9779 36.7913 17.4951 37.1616 18.1594C37.5373 18.8183 37.7197 19.5833 37.7088 20.4545H35.7812C35.754 19.6922 35.5226 19.0661 35.087 18.576C34.6568 18.0859 33.9953 17.8409 33.1023 17.8409C31.8063 17.8409 30.6738 18.3936 29.7045 19.4989C28.7353 20.6043 28.071 22.2187 27.7116 24.3423L27.8423 24.2116C28.2235 23.7543 28.6455 23.3649 29.1083 23.0437C29.5711 22.7224 30.0639 22.4774 30.5866 22.3086C31.1148 22.1398 31.6593 22.0554 32.2202 22.0554C33.2003 22.0554 34.0579 22.3004 34.793 22.7905C35.528 23.2805 36.0698 23.953 36.4183 24.8079C36.7668 25.6628 36.8485 26.6402 36.6633 27.7401C36.4891 28.7528 36.1079 29.6785 35.5199 30.517C34.9372 31.3501 34.1967 32.0144 33.2983 32.5099C32.4053 33 31.4034 33.2396 30.2926 33.2287ZM30.3579 31.4318C31.0549 31.4318 31.7138 31.2549 32.3345 30.9009C32.9552 30.547 33.4807 30.0705 33.9109 29.4716C34.341 28.8726 34.616 28.2083 34.7358 27.4787C34.8447 26.8144 34.7957 26.2073 34.5888 25.6573C34.3819 25.1074 34.047 24.669 33.5841 24.3423C33.1213 24.0156 32.5578 23.8523 31.8935 23.8523C31.3653 23.8523 30.8507 23.9585 30.3498 24.1708C29.8543 24.3832 29.4023 24.6745 28.9939 25.0447C28.591 25.4096 28.2534 25.8261 27.9812 26.2944C27.7089 26.7627 27.5319 27.2554 27.4503 27.7727C27.3414 28.4152 27.3904 29.0142 27.5973 29.5696C27.8042 30.125 28.1445 30.5742 28.6182 30.9173C29.092 31.2603 29.6719 31.4318 30.3579 31.4318ZM43.7264 33.2287C42.4959 33.2287 41.5049 32.8938 40.7534 32.2241C40.002 31.5489 39.5065 30.5715 39.2669 29.2919C39.0273 28.0069 39.0546 26.455 39.3486 24.6364C39.6426 22.8286 40.1245 21.2849 40.7943 20.0053C41.464 18.7203 42.2889 17.7402 43.2691 17.065C44.2492 16.3844 45.3491 16.044 46.5688 16.044C47.7885 16.044 48.7768 16.3844 49.5336 17.065C50.2959 17.7456 50.8023 18.7257 51.0528 20.0053C51.3087 21.2849 51.2842 22.8286 50.9793 24.6364C50.6744 26.455 50.187 28.0041 49.5173 29.2837C48.8475 30.5633 48.0226 31.5407 47.0425 32.2159C46.0624 32.8911 44.957 33.2287 43.7264 33.2287ZM44.0205 31.4318C45.2456 31.4318 46.2938 30.8437 47.165 29.6676C48.0417 28.486 48.6597 26.8089 49.0191 24.6364C49.2586 23.188 49.3076 21.9547 49.1661 20.9364C49.0245 19.9182 48.7087 19.1423 48.2186 18.6087C47.7286 18.075 47.0806 17.8082 46.2747 17.8082C45.0659 17.8082 44.0259 18.4045 43.1547 19.5969C42.2835 20.784 41.6682 22.4638 41.3088 24.6364C41.0692 26.0848 41.0175 27.3153 41.1536 28.3281C41.2898 29.3409 41.6001 30.1114 42.0848 30.6396C42.5694 31.1677 43.2146 31.4318 44.0205 31.4318Z"
        fill="currentColor" />
</svg>