<svg xmlns="http://www.w3.org/2000/svg" width="18" height="18" viewBox="0 0 18 18">
    <path fill-rule="evenodd" clip-rule="evenodd"
        d="M1.35355 0.646447C1.15829 0.451184 0.841709 0.451184 0.646447 0.646447C0.451184 0.841709 0.451184 1.15829 0.646447 1.35355L8.29295 9.00006L0.646522 16.6465C0.45126 16.8418 0.45126 17.1583 0.646522 17.3536C0.841784 17.5489 1.15837 17.5489 1.35363 17.3536L9.00006 9.70717L16.6464 17.3536C16.8417 17.5488 17.1583 17.5488 17.3536 17.3536C17.5488 17.1583 17.5488 16.8417 17.3536 16.6464L9.70717 9.00006L17.3536 1.3536C17.5489 1.15834 17.5489 0.841754 17.3536 0.646492C17.1584 0.451229 16.8418 0.45123 16.6465 0.646492L9.00006 8.29295L1.35355 0.646447Z" />
</svg>