<svg xmlns="http://www.w3.org/2000/svg" viewBox="0 0 29 31">
    <path
        d="M9.68,30.33c-2.4,0-4.67-.94-6.37-2.64-1.7-1.7-2.64-3.96-2.64-6.37s.94-4.67,2.64-6.37L15.56,2.71c1.2-1.2,2.79-1.86,4.48-1.86s3.28,.66,4.48,1.86c1.2,1.2,1.86,2.79,1.86,4.48s-.66,3.28-1.86,4.48l-12.27,12.25c-1.38,1.39-3.8,1.39-5.19,0-.69-.69-1.07-1.61-1.07-2.59s.38-1.9,1.07-2.59L18.39,7.43c.39-.39,1.02-.39,1.42,0,.39,.39,.39,1.02,0,1.41l-11.32,11.31c-.31,.31-.49,.73-.49,1.18s.17,.86,.49,1.18c.63,.63,1.73,.63,2.36,0l12.27-12.25c.82-.82,1.27-1.91,1.27-3.07s-.45-2.25-1.27-3.07c-.82-.82-1.91-1.27-3.07-1.27s-2.25,.45-3.07,1.27L4.72,16.37c-1.32,1.32-2.05,3.08-2.05,4.95s.73,3.63,2.05,4.95c1.32,1.32,3.08,2.05,4.95,2.05s3.63-.73,4.95-2.05l12.25-12.25c.39-.39,1.02-.39,1.41,0s.39,1.02,0,1.41l-12.25,12.25c-1.7,1.7-3.96,2.64-6.37,2.64Z" />
</svg>