<svg xmlns="http://www.w3.org/2000/svg" width="24" height="24" viewBox="0 0 24 24">
    <path fill-rule="evenodd" clip-rule="evenodd"
        d="M2.32187 11.239H7.49872C7.63845 8.07836 8.64958 4.94855 10.5321 2.23432C6.09914 2.98504 2.668 6.68099 2.32187 11.239ZM7.49883 12.7628H2.32206C2.66931 17.3196 6.09999 21.0143 10.5321 21.7649C8.6501 19.0514 7.639 15.9226 7.49883 12.7628ZM9.0243 12.7628H15.3506C15.2009 15.8364 14.1465 18.8747 12.1874 21.4514C10.2284 18.8747 9.17397 15.8364 9.0243 12.7628ZM15.3507 11.239H9.02417C9.17337 8.16453 10.2278 5.12521 12.1874 2.54781C14.1471 5.12521 15.2015 8.16453 15.3507 11.239ZM16.876 12.7628C16.7358 15.9241 15.7238 19.0545 13.84 21.7689C18.2836 21.0274 21.7258 17.3277 22.0737 12.7628H16.876ZM22.0739 11.239H16.8762C16.7364 8.07682 15.7243 4.94551 13.84 2.23036C18.2844 2.97193 21.7271 6.67291 22.0739 11.239ZM12.1979 0.571045C5.88603 0.571045 0.769287 5.68779 0.769287 11.9996C0.769287 18.3114 5.88603 23.4282 12.1979 23.4282C18.5097 23.4282 23.6264 18.3114 23.6264 11.9996C23.6264 5.68779 18.5097 0.571045 12.1979 0.571045Z" />
</svg>