<svg width="41" height="41" viewBox="0 0 41 41" xmlns="http://www.w3.org/2000/svg">
<path d="M20.5001 6.5C12.7806 6.5 6.50009 12.7805 6.50009 20.5C6.50009 22.9104 7.12279 25.2807 8.30366 27.3722L6.52261 33.727C6.46418 33.9357 6.52079 34.1597 6.67174 34.315C6.788 34.4349 6.94626 34.5 7.10879 34.5C7.15748 34.5 7.20679 34.4939 7.25487 34.4823L13.8872 32.8395C15.9124 33.9266 18.1931 34.5 20.5001 34.5C28.2196 34.5 34.5001 28.2195 34.5001 20.5C34.5001 12.7805 28.2196 6.5 20.5001 6.5ZM27.5427 25.4402C27.2432 26.2692 25.8067 27.0258 25.1164 27.1275C24.4968 27.2182 23.7128 27.2571 22.8521 26.9869C22.3304 26.8225 21.6609 26.6046 20.8032 26.2388C17.1979 24.7012 14.8435 21.1166 14.6633 20.8798C14.4837 20.643 13.1957 18.9557 13.1957 17.2094C13.1957 15.463 14.124 14.6042 14.4539 14.2487C14.7838 13.8932 15.1728 13.8043 15.4126 13.8043C15.6524 13.8043 15.8917 13.8074 16.1017 13.8171C16.3226 13.8281 16.619 13.7337 16.9106 14.4264C17.2101 15.1374 17.929 16.8837 18.0178 17.0621C18.1079 17.2398 18.1676 17.4474 18.0483 17.6842C17.929 17.921 17.8693 18.0689 17.6891 18.2764C17.509 18.484 17.3117 18.739 17.1498 18.8985C16.9697 19.0757 16.7828 19.2674 16.9922 19.6229C17.2016 19.9783 17.9229 21.1403 18.9917 22.0814C20.3644 23.2903 21.5227 23.6652 21.8818 23.843C22.241 24.0207 22.451 23.9909 22.6604 23.7541C22.8697 23.5167 23.5588 22.7175 23.798 22.3626C24.0372 22.0077 24.277 22.0662 24.607 22.1849C24.9369 22.303 26.7039 23.1612 27.063 23.339C27.4222 23.5167 27.662 23.6056 27.7521 23.7535C27.8422 23.9008 27.8422 24.6117 27.5427 25.4402Z"/>
</svg>
