<svg width="288" height="75" viewBox="0 0 288 75" fill="none" xmlns="http://www.w3.org/2000/svg">
<g clip-path="url(#clip0_1701_135)">
<path d="M140.298 16.5192H138.853V22.7896H136.766V8.29688H138.853V14.4382H140.048L143.981 8.29688H146.454L141.947 15.2158L146.808 22.7896H144.254L140.298 16.5192Z" fill="#6E51C5"/>
<path d="M155.274 19.3245H150.451L149.419 22.7896H147.297L151.894 8.29688H153.881L158.423 22.7896H156.298L155.274 19.3245ZM151.025 17.3837H154.705L152.884 11.2249H152.859L151.025 17.3837Z" fill="#6E51C5"/>
<path d="M163.069 8.29688L166.694 19.5291L170.332 8.29688H173.041V22.7896H170.951V17.8548L171.165 11.4829H171.142L167.393 22.7896H165.992L162.258 11.5102H162.232L162.447 17.8548V22.7896H160.359V8.29688H163.069Z" fill="#6E51C5"/>
<path d="M185.406 18.0939C185.36 19.4189 184.863 20.6883 183.998 21.6929C183.558 22.1405 183.028 22.4887 182.442 22.7144C181.857 22.9401 181.23 23.0379 180.604 23.0012C179.924 23.0248 179.247 22.8853 178.631 22.5943C178.016 22.3032 177.478 21.8691 177.065 21.3282C176.139 20.0538 175.676 18.5024 175.75 16.9294V14.1725C175.678 12.6015 176.146 11.0532 177.076 9.7847C177.485 9.24055 178.02 8.8026 178.634 8.50761C179.248 8.21261 179.923 8.06917 180.604 8.08933C181.232 8.04865 181.861 8.14245 182.449 8.36446C183.038 8.58647 183.572 8.93157 184.016 9.37667C184.879 10.413 185.37 11.7084 185.411 13.0563H183.324C183.284 12.242 183.015 11.4555 182.546 10.788C182.302 10.5216 182 10.3148 181.663 10.1836C181.327 10.0525 180.964 10.0004 180.604 10.0315C180.192 10.0236 179.785 10.1265 179.426 10.3294C179.068 10.5322 178.77 10.8276 178.564 11.1848C178.04 12.083 177.785 13.1125 177.828 14.1514V16.9294C177.783 17.9755 178.035 19.013 178.555 19.9219C178.761 20.2803 179.061 20.5763 179.421 20.7784C179.782 20.9806 180.191 21.0815 180.604 21.0703C180.959 21.099 181.316 21.0479 181.649 20.9206C181.982 20.7934 182.282 20.5932 182.528 20.3349C183.004 19.6811 183.277 18.9018 183.314 18.0939H185.406Z" fill="#6E51C5"/>
<path d="M191.259 16.5192H189.813V22.7896H187.727V8.29688H189.813V14.4382H191.01L194.941 8.29688H197.414L192.908 15.2158L197.768 22.7896H195.215L191.259 16.5192Z" fill="#6E51C5"/>
<path d="M207.054 8.29688H209.144V22.7896H207.054V12.3571H207.027L201.457 22.7896H199.367V8.29688H201.457V18.7193H201.483L207.054 8.29688Z" fill="#6E51C5"/>
<path d="M219.867 8.29781H221.959V22.7905H219.867V12.3581H219.842L214.272 22.7905H212.18V8.29781H214.272V18.7202H214.298L219.867 8.29781ZM219.867 4.03906C219.886 4.41341 219.83 4.78784 219.703 5.14047C219.576 5.4931 219.38 5.81685 219.126 6.09281C218.562 6.58384 217.839 6.85427 217.09 6.85427C216.342 6.85427 215.619 6.58384 215.055 6.09281C214.801 5.81685 214.605 5.4931 214.478 5.14047C214.35 4.78784 214.295 4.41341 214.314 4.03906H215.878C215.86 4.3957 215.962 4.74812 216.166 5.04105C216.278 5.17405 216.421 5.27815 216.582 5.34462C216.743 5.41108 216.918 5.43798 217.091 5.42304C217.263 5.43764 217.436 5.41053 217.595 5.34403C217.754 5.27752 217.895 5.17358 218.005 5.04105C218.211 4.74893 218.313 4.39612 218.295 4.03906H219.867Z" fill="#6E51C5"/>
<path d="M233.67 14.4398C233.983 14.4687 234.299 14.4327 234.598 14.3339C234.897 14.2351 235.173 14.0757 235.407 13.8656C235.801 13.4151 236 12.8268 235.96 12.2298C235.97 11.9389 235.922 11.6489 235.818 11.3771C235.713 11.1053 235.556 10.8571 235.354 10.6474C235.108 10.4273 234.82 10.2593 234.508 10.1534C234.195 10.0474 233.865 10.0058 233.536 10.0309C232.94 10.0102 232.359 10.2219 231.916 10.6213C231.707 10.816 231.543 11.0531 231.433 11.3166C231.324 11.5801 231.273 11.864 231.282 12.1492H229.19C229.165 11.595 229.264 11.0422 229.478 10.5304C229.692 10.0186 230.017 9.56055 230.429 9.18896C231.288 8.44247 232.398 8.04934 233.536 8.08881C234.735 8.01668 235.919 8.39335 236.856 9.14553C237.268 9.54127 237.588 10.0226 237.794 10.5555C237.999 11.0884 238.086 11.6599 238.046 12.2298C238.055 12.8765 237.876 13.5118 237.532 14.0591C237.173 14.615 236.666 15.0605 236.07 15.3464C236.728 15.596 237.294 16.044 237.687 16.6287C238.073 17.2599 238.265 17.9912 238.237 18.7308C238.273 19.3191 238.175 19.9078 237.953 20.4535C237.731 20.9993 237.389 21.4883 236.953 21.8846C235.991 22.6659 234.773 23.0635 233.536 23.0007C232.378 23.0337 231.246 22.6598 230.336 21.9441C229.881 21.5557 229.525 21.0659 229.294 20.5142C229.064 19.9624 228.967 19.3643 229.01 18.768H231.1C231.091 19.075 231.146 19.3805 231.262 19.665C231.377 19.9496 231.551 20.2071 231.771 20.4212C232.007 20.6413 232.285 20.8121 232.588 20.9234C232.891 21.0348 233.213 21.0846 233.536 21.0698C234.236 21.1124 234.926 20.8817 235.461 20.4262C235.689 20.2108 235.868 19.9491 235.987 19.6586C236.105 19.368 236.16 19.0555 236.148 18.742C236.177 18.4138 236.138 18.0831 236.033 17.771C235.928 17.4588 235.759 17.172 235.536 16.9289C235.008 16.5111 234.341 16.3078 233.67 16.3596H232.21V14.4398H233.67Z" fill="#6E51C5"/>
<path d="M247.519 19.3245H242.697L241.661 22.7896H239.539L244.139 8.29688H246.125L250.665 22.7896H248.541L247.519 19.3245ZM243.271 17.3837H246.951L245.126 11.2249H245.103L243.271 17.3837Z" fill="#6E51C5"/>
<path d="M252.602 22.7884V8.29573H256.8C257.963 8.21882 259.115 8.56354 260.044 9.26672C260.444 9.64728 260.755 10.1125 260.952 10.6283C261.15 11.1442 261.229 11.6976 261.185 12.2482C261.197 12.8667 261.031 13.4757 260.708 14.003C260.392 14.5103 259.928 14.9088 259.379 15.1452V15.1725C259.729 15.2535 260.06 15.4039 260.35 15.6148C260.641 15.8257 260.887 16.0928 261.072 16.4002C261.474 17.072 261.676 17.8439 261.657 18.6263C261.701 19.1956 261.624 19.7678 261.433 20.3056C261.241 20.8435 260.938 21.3349 260.544 21.748C259.658 22.4938 258.516 22.8668 257.36 22.7884H252.602ZM254.694 14.3998H257.022C257.581 14.4358 258.132 14.2485 258.553 13.879C258.745 13.6768 258.892 13.4369 258.985 13.1746C259.078 12.9124 259.116 12.6336 259.095 12.356C259.121 12.0639 259.083 11.7697 258.986 11.4932C258.888 11.2167 258.733 10.9642 258.53 10.7524C258.037 10.3723 257.42 10.189 256.8 10.2378H254.694V14.3998ZM254.694 16.2019V20.8575H257.36C257.66 20.8778 257.96 20.8375 258.243 20.739C258.527 20.6406 258.788 20.486 259.01 20.2845C259.209 20.0593 259.362 19.7967 259.459 19.5121C259.556 19.2274 259.596 18.9264 259.575 18.6263C259.616 17.991 259.448 17.3598 259.095 16.8293C258.909 16.6102 258.672 16.4389 258.406 16.3298C258.139 16.2206 257.851 16.1768 257.564 16.2019H254.694Z" fill="#6E51C5"/>
<path d="M274.082 16.8474C274.144 18.441 273.639 20.005 272.658 21.2625C272.211 21.8238 271.639 22.2731 270.987 22.5747C270.336 22.8763 269.623 23.0219 268.905 22.9999C268.198 23.0217 267.496 22.875 266.856 22.5718C266.217 22.2686 265.659 21.8177 265.228 21.2563C264.268 19.9919 263.778 18.4334 263.841 16.8474V14.2406C263.781 12.657 264.27 11.1013 265.225 9.8367C265.654 9.27505 266.211 8.82352 266.849 8.51945C267.487 8.21537 268.188 8.06748 268.894 8.08799C269.613 8.06653 270.328 8.21347 270.98 8.51709C271.633 8.8207 272.205 9.27259 272.652 9.8367C273.634 11.0894 274.141 12.6497 274.082 14.2406V16.8474ZM271.99 14.2195C272.033 13.1669 271.744 12.1272 271.164 11.248C270.916 10.8759 270.578 10.5731 270.181 10.3684C269.784 10.1637 269.341 10.0639 268.894 10.0785C268.46 10.0663 268.03 10.1671 267.646 10.371C267.263 10.5749 266.939 10.875 266.706 11.2418C266.151 12.1329 265.877 13.1705 265.92 14.2195V16.8474C265.876 17.9054 266.152 18.952 266.711 19.8511C266.944 20.2199 267.268 20.5217 267.653 20.7268C268.038 20.9319 268.469 21.0331 268.905 21.0206C269.352 21.0347 269.795 20.9347 270.192 20.7301C270.589 20.5254 270.927 20.2229 271.175 19.8511C271.751 18.9582 272.035 17.9088 271.99 16.8474V14.2195Z" fill="#6E51C5"/>
<path d="M287.938 26.3576H285.935V22.7896H277.553V26.3675H275.523L275.461 20.8586H276.485C277.023 20.1822 277.429 19.4106 277.682 18.5842C278.085 17.1679 278.282 15.701 278.266 14.2286L278.583 8.29688H286.415V20.8586H288.025L287.938 26.3576ZM280.372 14.2286C280.349 15.5467 280.192 16.859 279.902 18.1451C279.688 19.0942 279.34 20.0079 278.868 20.8586H284.329V10.239H280.568L280.372 14.2286Z" fill="#6E51C5"/>
<path d="M146.55 45.9587H144.469V33.4068H138.853V45.9587H136.766V31.4647H146.55V45.9587Z" fill="#6E51C5"/>
<path d="M160.041 40.0153C160.105 41.6093 159.6 43.174 158.618 44.4304C158.171 44.9919 157.599 45.4414 156.947 45.743C156.296 46.0446 155.583 46.1901 154.866 46.1678C154.159 46.1895 153.457 46.0428 152.817 45.7398C152.178 45.4369 151.62 44.9863 151.189 44.4253C150.23 43.1599 149.74 41.6015 149.802 40.0153V37.4085C149.742 35.8249 150.231 34.2692 151.186 33.0046C151.615 32.4428 152.172 31.9912 152.811 31.6871C153.449 31.3831 154.151 31.2352 154.857 31.2559C155.576 31.2346 156.29 31.3817 156.942 31.6853C157.594 31.9889 158.166 32.4407 158.613 33.0046C159.596 34.2569 160.102 35.8177 160.041 37.4085L160.041 40.0153ZM157.953 37.3875C157.996 36.3349 157.707 35.2954 157.127 34.4159C156.879 34.0446 156.54 33.7425 156.143 33.5379C155.746 33.3333 155.304 33.233 154.857 33.2464C154.423 33.2345 153.993 33.3355 153.609 33.5396C153.225 33.7438 152.901 34.044 152.668 34.411C152.112 35.3013 151.838 36.3387 151.881 37.3875V40.0153C151.836 41.0737 152.113 42.1207 152.674 43.019C152.906 43.3879 153.23 43.6899 153.615 43.895C153.999 44.1001 154.43 44.2013 154.866 44.1885C155.313 44.2032 155.756 44.1034 156.153 43.8988C156.551 43.6941 156.889 43.3913 157.137 43.019C157.712 42.1258 157.997 41.0767 157.953 40.0153V37.3875Z" fill="#6E51C5"/>
<path d="M172.758 31.4648V45.9588H170.67V33.407H166.759L166.612 38.1865C166.669 40.2362 166.323 42.2773 165.595 44.194C165.33 44.7551 164.902 45.2236 164.367 45.5383C163.832 45.8531 163.215 45.9996 162.596 45.9588H162.062V44.0277H162.406C162.776 44.0217 163.133 43.8938 163.422 43.664C163.712 43.4342 163.917 43.1152 164.007 42.7567C164.374 41.2616 164.55 39.7259 164.53 38.1865L164.736 31.4648H172.758Z" fill="#6E51C5"/>
<path d="M183.999 31.4648H186.088V45.9588H183.999V35.5251H183.972L178.401 45.9588H176.312V31.4648H178.401V41.8872H178.428L183.999 31.4648Z" fill="#6E51C5"/>
<path d="M192.412 31.4648L196.044 42.6971L199.681 31.4648H202.387V45.9588H200.297V41.0241L200.512 34.6509H200.486L196.739 45.9588H195.336L191.606 34.678H191.581L191.795 41.0241V45.9588H189.703V31.4648H192.412Z" fill="#6E51C5"/>
<path d="M213.581 39.4416H208.104V44.0277H214.459V45.9588H206.016V31.4648H214.4V33.407H208.104V37.4995H213.581V39.4416Z" fill="#6E51C5"/>
<path d="M219.188 40.4665V45.9593H217.102V31.4653H221.993C222.593 31.428 223.193 31.5171 223.756 31.7269C224.319 31.9367 224.831 32.2625 225.26 32.6832C226.06 33.5839 226.474 34.7628 226.413 35.9659C226.479 37.1712 226.064 38.3533 225.26 39.2536C224.831 39.6735 224.318 39.9985 223.756 40.2075C223.193 40.4165 222.592 40.5047 221.993 40.4665H219.188ZM219.188 38.5244H221.993C222.321 38.5501 222.651 38.4996 222.956 38.3767C223.261 38.2538 223.534 38.062 223.753 37.8162C224.149 37.2912 224.35 36.6442 224.321 35.987C224.349 35.3219 224.148 34.6673 223.753 34.1317C223.537 33.8815 223.265 33.6856 222.959 33.5598C222.654 33.434 222.323 33.3818 221.993 33.4074H219.188V38.5244Z" fill="#6E51C5"/>
<path d="M239.131 45.9588H237.05V39.7789H231.444V45.9588H229.352V31.4648H231.444V37.8368H237.05V31.4648H239.131V45.9588Z" fill="#6E51C5"/>
<path d="M244.849 37.0704H247.497C248.097 37.0324 248.698 37.1169 249.265 37.3188C249.831 37.5207 250.35 37.8358 250.791 38.2448C251.191 38.6767 251.5 39.1848 251.7 39.7389C251.899 40.2929 251.985 40.8814 251.952 41.4693C251.983 42.0664 251.896 42.6638 251.696 43.2272C251.495 43.7906 251.186 44.3088 250.785 44.7521C250.35 45.1698 249.833 45.4927 249.267 45.7004C248.701 45.9081 248.098 45.9961 247.497 45.9588H242.758V31.4648H244.849V37.0704ZM244.849 39.0125V44.0277H247.497C247.828 44.0518 248.161 43.9995 248.468 43.8748C248.776 43.7501 249.052 43.5563 249.273 43.3084C249.681 42.7784 249.888 42.1214 249.859 41.4532C249.891 40.8109 249.682 40.1799 249.275 39.6823C249.046 39.447 248.768 39.2651 248.461 39.1493C248.153 39.0336 247.824 38.9869 247.497 39.0125H244.849ZM255.364 45.9588H253.274V31.4648H255.364V45.9588Z" fill="#6E51C5"/>
<path d="M263.173 36.8236L265.823 31.4648H268.29L264.447 38.6528L268.435 45.9588H265.936L263.208 40.5143L260.491 45.9588H258.023L261.952 38.6528L258.109 31.4648H260.561L263.173 36.8236Z" fill="#6E51C5"/>
<path d="M139.476 54.6367L143.101 65.8629L146.738 54.6367H149.447V69.1294H147.357V64.1898L147.572 57.8178H147.548L143.799 69.1294H142.399L138.664 57.8501H138.638L138.853 64.1898V69.1294H136.766V54.6367H139.476Z" fill="#6E51C5"/>
<path d="M159.62 65.6644H154.797L153.765 69.1294H151.641L156.243 54.6367H158.227L162.765 69.1294H160.642L159.62 65.6644ZM155.374 63.7235H159.053L157.23 57.5599H157.203L155.374 63.7235Z" fill="#6E51C5"/>
<path d="M173.024 56.5727H169.111V69.1294H167.023V56.5727H163.117V54.6367H173.024V56.5727Z" fill="#6E51C5"/>
<path d="M182.856 62.6074H177.379V67.1985H183.733V69.1294H175.289V54.6367H183.671V56.5727H177.379V60.6653H182.856V62.6074Z" fill="#6E51C5"/>
<path d="M188.026 63.6328V69.1305H185.938V54.6378H190.829C191.429 54.599 192.03 54.6874 192.593 54.8973C193.156 55.1072 193.668 55.4338 194.096 55.8557C194.842 56.7879 195.249 57.9466 195.249 59.1409C195.249 60.3352 194.842 61.4939 194.096 62.4261C193.666 62.8441 193.153 63.1674 192.59 63.3753C192.028 63.5831 191.428 63.6708 190.829 63.6328H188.026ZM188.026 61.6907H190.829C191.157 61.7165 191.486 61.6666 191.791 61.5449C192.096 61.4232 192.369 61.2329 192.589 60.9888C192.987 60.4627 193.19 59.8139 193.161 59.1546C193.188 58.4901 192.986 57.8365 192.589 57.303C192.373 57.0519 192.102 56.8551 191.796 56.7284C191.49 56.6017 191.159 56.5488 190.829 56.5738H188.026V61.6907Z" fill="#6E51C5"/>
<path d="M205.39 54.6367H207.477V69.1294H205.39V58.6971H205.364L199.79 69.1294H197.703V54.6367H199.79V65.0593H199.818L205.39 54.6367Z" fill="#6E51C5"/>
<path d="M217.641 65.6644H212.819L211.786 69.1294H209.664L214.262 54.6367H216.25L220.79 69.1294H218.666L217.641 65.6644ZM213.392 63.7235H217.073L215.251 57.5599H215.228L213.392 63.7235Z" fill="#6E51C5"/>
<path d="M232.696 54.6367V69.1294H230.607V56.5727H226.696L226.549 61.3523C226.607 63.4021 226.262 65.4432 225.532 67.3597C225.269 67.9223 224.841 68.3922 224.306 68.7079C223.771 69.0237 223.153 69.1706 222.533 69.1294H222V67.1985H222.344C222.714 67.1911 223.071 67.0622 223.36 66.8316C223.65 66.6009 223.855 66.2814 223.945 65.9224C224.312 64.4274 224.488 62.8917 224.467 61.3523L224.674 54.6367H232.696Z" fill="#6E51C5"/>
<path d="M245.746 63.1874C245.809 64.7809 245.306 66.3453 244.324 67.6024C243.877 68.1642 243.304 68.6138 242.652 68.9155C242 69.2171 241.287 69.3625 240.569 69.3399C239.862 69.3603 239.161 69.2129 238.522 68.9098C237.883 68.6067 237.325 68.1565 236.894 67.5962C235.935 66.3314 235.444 64.7734 235.505 63.1874V60.5805C235.444 58.9952 235.933 57.4375 236.889 56.1716C237.319 55.61 237.877 55.1589 238.516 54.8557C239.155 54.5525 239.857 54.4059 240.564 54.428C241.282 54.4056 241.996 54.5517 242.648 54.8544C243.3 55.1572 243.872 55.6083 244.318 56.1716C245.301 57.426 245.807 58.9882 245.746 60.5805V63.1874ZM243.659 60.5594C243.702 59.5068 243.413 58.4674 242.832 57.588C242.585 57.2161 242.247 56.9134 241.85 56.7087C241.453 56.5041 241.01 56.4042 240.564 56.4185C240.129 56.4045 239.699 56.5045 239.315 56.7086C238.931 56.9127 238.607 57.2137 238.375 57.5818C237.818 58.4721 237.543 59.5101 237.586 60.5594V63.1874C237.541 64.244 237.817 65.2894 238.378 66.1861C238.609 66.5552 238.933 66.8573 239.318 67.0624C239.702 67.2676 240.133 67.3687 240.569 67.3556C241.016 67.3719 241.46 67.2728 241.858 67.068C242.256 66.8632 242.594 66.5595 242.841 66.1861C243.418 65.2954 243.703 64.2475 243.659 63.1874V60.5594Z" fill="#6E51C5"/>
<path d="M248.547 69.1301V54.6374H252.741C253.904 54.5613 255.055 54.9035 255.987 55.6023C256.388 55.9829 256.698 56.4483 256.895 56.9644C257.092 57.4805 257.171 58.0342 257.127 58.5849C257.139 59.2051 256.973 59.8158 256.649 60.3447C256.334 60.8505 255.87 61.2474 255.322 61.482V61.5142C255.672 61.5954 256.002 61.7453 256.292 61.9553C256.583 62.1652 256.829 62.431 257.017 62.7371C257.417 63.4112 257.62 64.1843 257.602 64.9681C257.645 65.5376 257.569 66.1099 257.376 66.6478C257.184 67.1856 256.88 67.6769 256.486 68.0896C255.597 68.8342 254.456 69.207 253.299 69.1301H248.547ZM250.633 60.7354H252.967C253.524 60.7712 254.073 60.5863 254.495 60.2207C254.685 60.0178 254.832 59.7779 254.925 59.5158C255.018 59.2538 255.056 58.9752 255.037 58.6978C255.063 58.4045 255.025 58.1091 254.927 57.8314C254.829 57.5538 254.673 57.3003 254.469 57.088C253.977 56.7081 253.361 56.5247 252.741 56.5734H250.633V60.7354ZM250.633 62.5386V67.1991H253.299C253.6 67.2205 253.901 67.1801 254.185 67.0805C254.47 66.9809 254.73 66.8242 254.951 66.62C255.151 66.3964 255.305 66.135 255.402 65.8514C255.5 65.5678 255.54 65.2675 255.521 64.9681C255.562 64.3306 255.392 63.6972 255.037 63.1662C254.851 62.9474 254.615 62.7762 254.349 62.6671C254.083 62.5579 253.795 62.5138 253.509 62.5386H250.633Z" fill="#6E51C5"/>
<path d="M117.351 21.8677C112.668 3.23406 83.2669 -5.0429 51.409 3.1745C80.1452 -4.14125 107.02 4.78428 111.713 23.3695C116.47 42.1818 96.7097 63.7707 67.5866 71.5653C38.4857 79.3697 11.0271 70.4392 6.27451 51.622C1.62365 33.2339 20.4194 12.203 48.4746 3.98434C17.3188 12.9806 -3.98225 34.7047 0.647527 53.1288C5.36786 71.946 35.3269 80.2167 67.5444 71.5764C99.767 62.9448 122.066 40.6799 117.351 21.8677Z" fill="#6E51C5"/>
<path d="M45.3251 35.7623C43.4471 32.2712 42.4613 28.3701 42.4553 24.406C42.4515 20.9822 43.1912 17.5983 44.6231 14.4883C39.3319 14.9808 34.4149 17.4302 30.8346 21.357C27.2543 25.2838 25.2684 30.4054 25.2656 35.7193C25.2628 41.0331 27.2433 46.1568 30.8195 50.0874C34.3957 54.018 39.3101 56.4725 44.6008 56.9706C43.1834 53.8793 42.4515 50.5181 42.4553 47.1174C42.4605 43.1536 43.4464 39.2527 45.3251 35.7623Z" fill="#6E51C5"/>
<path d="M46.9955 33.1003C49.2124 30.0058 52.1335 27.4829 55.5177 25.7399C58.9019 23.9969 62.6522 23.0838 66.4589 23.0759C70.2657 23.0681 74.0197 23.9657 77.4111 25.6946C80.8025 27.4236 83.734 29.9344 85.9636 33.0197C87.4107 29.7666 88.0209 26.2033 87.7388 22.6542C87.4567 19.105 86.2912 15.6828 84.3484 12.6993C82.4056 9.71566 79.7472 7.26544 76.6154 5.57173C73.4836 3.87802 69.9779 2.99463 66.4174 3.002C62.8569 3.00937 59.3548 3.90726 56.2301 5.61392C53.1053 7.32057 50.4571 9.78177 48.5267 12.7734C46.5963 15.765 45.4449 19.192 45.1775 22.7422C44.9101 26.2925 45.535 29.8533 46.9955 33.1003Z" fill="#6E51C5"/>
<path d="M83.7955 34.624C81.8103 31.8834 79.2044 29.6516 76.1911 28.1112C73.1777 26.5709 69.8425 25.7658 66.4583 25.7617C62.5293 25.7651 58.6773 26.8521 55.3262 28.9032C51.9751 30.9542 49.2546 33.8897 47.4641 37.3869C45.6736 40.8841 44.8824 44.8073 45.1776 48.725C45.4727 52.6428 46.8428 56.4032 49.1371 59.5926C51.1252 62.3355 53.734 64.5692 56.7504 66.1112C59.7668 67.6532 63.1052 68.4596 66.4929 68.4648C70.9653 68.471 75.3248 67.0609 78.9462 64.4366C83.5363 61.1213 86.6244 56.1212 87.5334 50.5326C88.4425 44.9441 87.0983 39.2231 83.7955 34.624Z" fill="#6E51C5"/>
</g>
<defs>
<clipPath id="clip0_1701_135">
<rect width="288" height="75" fill="white"/>
</clipPath>
</defs>
</svg>
