<svg width="96" height="96" viewBox="0 0 96 96" fill="none" xmlns="http://www.w3.org/2000/svg">
    <circle cx="48" cy="48" r="45.5" fill="#6E51C5" stroke="white" stroke-width="5" />
    <path
        d="M76.6804 40.4807C74.4284 31.5205 60.2905 27.5403 44.9711 31.4918C58.7894 27.9739 71.7125 32.2659 73.9692 41.2029C76.2569 50.2491 66.7547 60.6305 52.7504 64.3786C38.7568 68.1315 25.5529 63.8371 23.2675 54.7886C21.0311 45.9464 30.0693 35.8333 43.5601 31.8812C28.5783 36.2072 18.3354 46.6536 20.5617 55.5131C22.8315 64.5617 37.2378 68.5388 52.7301 64.384C68.2248 60.2333 78.9478 49.5269 76.6804 40.4807Z"
        fill="#F1F2F8" />
    <path
        d="M42.0522 47.1624C41.1491 45.4837 40.6751 43.6077 40.6722 41.7015C40.6704 40.0551 41.0261 38.428 41.7146 36.9324C39.1702 37.1693 36.8058 38.3471 35.0842 40.2354C33.3625 42.1236 32.4076 44.5864 32.4063 47.1417C32.4049 49.697 33.3573 52.1607 35.0769 54.0508C36.7966 55.9409 39.1597 57.1212 41.7039 57.3607C41.0223 55.8743 40.6703 54.2579 40.6722 52.6227C40.6747 50.7166 41.1488 48.8408 42.0522 47.1624Z"
        fill="#F1F2F8" />
    <path
        d="M42.8505 45.879C43.9165 44.3909 45.3212 43.1778 46.9485 42.3396C48.5759 41.5015 50.3793 41.0624 52.2098 41.0586C54.0403 41.0548 55.8455 41.4864 57.4763 42.3178C59.1071 43.1492 60.5168 44.3566 61.5889 45.8402C62.2848 44.2759 62.5782 42.5624 62.4426 40.8558C62.3069 39.1491 61.7464 37.5035 60.8122 36.0688C59.878 34.6341 58.5997 33.4559 57.0937 32.6414C55.5877 31.827 53.9019 31.4022 52.1898 31.4057C50.4777 31.4093 48.7937 31.841 47.2911 32.6617C45.7885 33.4824 44.5151 34.6659 43.5868 36.1044C42.6585 37.543 42.1049 39.1909 41.9763 40.8981C41.8477 42.6053 42.1482 44.3176 42.8505 45.879Z"
        fill="#F1F2F8" />
    <path
        d="M60.5464 46.607C59.5917 45.2891 58.3386 44.216 56.8896 43.4753C55.4406 42.7346 53.8368 42.3474 52.2095 42.3455C50.3201 42.3471 48.4679 42.8698 46.8564 43.8561C45.245 44.8423 43.9368 46.254 43.0758 47.9356C42.2148 49.6173 41.8344 51.5038 41.9763 53.3877C42.1182 55.2716 42.7771 57.0799 43.8803 58.6136C44.8363 59.9325 46.0908 61.0067 47.5413 61.7481C48.9918 62.4896 50.5971 62.8774 52.2261 62.8799C54.3767 62.8829 56.4731 62.2048 58.2145 60.9429C60.4217 59.3487 61.9067 56.9443 62.3438 54.257C62.7809 51.5696 62.1345 48.8186 60.5464 46.607Z"
        fill="#F1F2F8" />
</svg>