<svg width="62" height="62" viewBox="0 0 62 62" fill="none" xmlns="http://www.w3.org/2000/svg">
    <circle cx="31.3467" cy="30.7944" r="28" fill="#6E51C5" stroke="white" stroke-width="5" />
    <mask id="path-2-inside-1_1754_1838" fill="white">
        <path
            d="M48.3535 26.3364C47.018 21.0228 38.6339 18.6625 29.5491 21.0058C37.7437 18.9196 45.4074 21.4648 46.7456 26.7647C48.1023 32.1293 42.4673 38.2857 34.1624 40.5084C25.8639 42.7339 18.0336 40.1873 16.6784 34.8213C15.3521 29.5776 20.712 23.5804 28.7124 21.2367C19.8278 23.8021 13.7535 29.9971 15.0738 35.251C16.4198 40.617 24.9631 42.9755 34.1504 40.5116C43.3391 38.0501 49.6981 31.701 48.3535 26.3364Z" />
    </mask>
    <path
        d="M48.3535 26.3364C47.018 21.0228 38.6339 18.6625 29.5491 21.0058C37.7437 18.9196 45.4074 21.4648 46.7456 26.7647C48.1023 32.1293 42.4673 38.2857 34.1624 40.5084C25.8639 42.7339 18.0336 40.1873 16.6784 34.8213C15.3521 29.5776 20.712 23.5804 28.7124 21.2367C19.8278 23.8021 13.7535 29.9971 15.0738 35.251C16.4198 40.617 24.9631 42.9755 34.1504 40.5116C43.3391 38.0501 49.6981 31.701 48.3535 26.3364Z"
        fill="#F1F2F8" />
    <path
        d="M48.3535 26.3364L50.3242 25.8424L50.3239 25.8412L48.3535 26.3364ZM29.5491 21.0058L29.0417 19.0384L30.0504 22.9747L29.5491 21.0058ZM46.7456 26.7647L44.7757 27.2621L44.7759 27.2628L46.7456 26.7647ZM34.1624 40.5084L33.6371 38.5457L33.6361 38.546L34.1624 40.5084ZM16.6784 34.8213L18.6483 34.3238L18.6481 34.3231L16.6784 34.8213ZM28.7124 21.2367L29.2835 23.1865L28.1487 19.2847L28.7124 21.2367ZM15.0738 35.251L17.0444 34.7566L17.0442 34.7558L15.0738 35.251ZM34.1504 40.5116L33.6247 38.549L33.6241 38.5492L34.1504 40.5116ZM50.3239 25.8412C49.4067 22.1917 46.1668 19.9073 42.4103 18.8447C38.6043 17.7681 33.8651 17.7943 29.0417 19.0384L30.0566 22.9731C34.3179 21.874 38.3131 21.9086 41.3042 22.7548C44.3449 23.6149 45.9647 25.1674 46.383 26.8316L50.3239 25.8412ZM30.0504 22.9747C33.8315 22.0121 37.393 22.1467 40.0748 23.0425C42.7749 23.9445 44.3318 25.504 44.7757 27.2621L48.7156 26.2672C47.8212 22.7255 44.8771 20.3625 41.3622 19.1884C37.8289 18.0081 33.4613 17.9132 29.0479 19.0368L30.0504 22.9747ZM44.7759 27.2628C45.229 29.0546 44.579 31.2577 42.5785 33.4428C40.5977 35.6064 37.4689 37.5202 33.6371 38.5457L34.6877 42.4711C39.1608 41.2739 43.0019 38.9981 45.5757 36.1867C48.1298 33.3968 49.6189 29.8394 48.7154 26.2665L44.7759 27.2628ZM33.6361 38.546C29.8066 39.573 26.1805 39.4693 23.4451 38.5796C20.6889 37.6831 19.0981 36.1047 18.6483 34.3238L14.7085 35.3188C15.6139 38.9039 18.6158 41.2818 22.1882 42.4438C25.7813 43.6125 30.2197 43.6693 34.6887 42.4708L33.6361 38.546ZM18.6481 34.3231C18.2052 32.572 18.8158 30.431 20.7169 28.2908C22.6018 26.1687 25.5937 24.2674 29.2835 23.1865L28.1412 19.2869C23.8306 20.5497 20.1424 22.8188 17.6789 25.5922C15.2315 28.3475 13.8253 31.8269 14.7086 35.3195L18.6481 34.3231ZM28.1487 19.2847C23.4299 20.6473 19.3629 22.9967 16.6118 25.817C13.8999 28.5972 12.2002 32.1526 13.1033 35.7461L17.0442 34.7558C16.627 33.0955 17.3044 30.9264 19.5207 28.6544C21.6979 26.4223 25.1102 24.3916 29.276 23.1887L28.1487 19.2847ZM13.1031 35.7453C14.0278 39.4318 17.3231 41.7256 21.1313 42.7761C24.9928 43.8413 29.7991 43.7821 34.6767 42.474L33.6241 38.5492C29.3143 39.705 25.2554 39.6985 22.2119 38.8589C19.1151 38.0046 17.4657 36.4361 17.0444 34.7566L13.1031 35.7453ZM34.6761 42.4741C39.5553 41.1671 43.775 38.8077 46.6373 35.9507C49.4551 33.138 51.2438 29.5109 50.3242 25.8424L46.3827 26.8304C46.8078 28.5265 46.0893 30.7562 43.7666 33.0747C41.4884 35.3487 37.9342 37.3946 33.6247 38.549L34.6761 42.4741Z"
        fill="white" mask="url(#path-2-inside-1_1754_1838)" />
    <path
        d="M26.1078 25.6649C26.0243 26.1243 25.9822 26.5916 25.9827 27.0612L25.9827 27.0617C25.9844 28.1801 26.2243 29.2833 26.6841 30.2984C26.2241 31.3135 25.9842 32.4167 25.9827 33.5353L25.9827 33.5355C25.9822 33.9985 26.0232 34.4594 26.1046 34.9126C25.4749 34.6299 24.9042 34.2191 24.4319 33.6999C23.5823 32.7662 23.1119 31.5491 23.1126 30.2868C23.1132 29.0245 23.585 27.8079 24.4355 26.8751C24.908 26.3569 25.4785 25.9469 26.1078 25.6649Z"
        fill="#F1F2F8" stroke="white" stroke-width="2.03175" />
    <path
        d="M30.2576 26.5375C29.7331 26.8076 29.2426 27.1349 28.7945 27.5122C28.7683 27.2305 28.7656 26.9461 28.787 26.6621C28.8506 25.8187 29.1241 25.0045 29.5827 24.2938C30.0413 23.5831 30.6704 22.9984 31.4128 22.5929C32.1551 22.1875 32.9871 21.9742 33.833 21.9724C34.6789 21.9707 35.5117 22.1805 36.2558 22.5829C36.9998 22.9853 37.6313 23.5674 38.0929 24.2762C38.5544 24.985 38.8313 25.798 38.8983 26.6412C38.9209 26.9251 38.9194 27.2095 38.8944 27.4913C38.4447 27.1158 37.9529 26.7906 37.4273 26.5226C36.3167 25.9564 35.0873 25.6625 33.8406 25.6651C32.594 25.6676 31.3658 25.9667 30.2576 26.5375Z"
        fill="#F1F2F8" stroke="white" stroke-width="2.03175" />
    <path
        d="M36.8076 37.6529L36.8089 37.652C37.8998 36.864 38.6337 35.6757 38.8498 34.3475C39.0657 33.02 38.7467 31.661 37.9626 30.5683C37.4907 29.9174 36.8715 29.3873 36.1556 29.0213C35.4394 28.6552 34.6467 28.4638 33.8424 28.4627C32.9092 28.4637 31.9943 28.7219 31.1984 29.2091C30.4022 29.6964 29.7558 30.3939 29.3303 31.2248C28.9049 32.0558 28.7169 32.9879 28.7871 33.9188C28.8571 34.849 29.1823 35.7419 29.7268 36.4994C30.1995 37.1512 30.8197 37.682 31.5366 38.0485C32.2541 38.4152 33.0481 38.6071 33.8539 38.6083L36.8076 37.6529ZM36.8076 37.6529C35.9487 38.2753 34.9147 38.6098 33.854 38.6083L36.8076 37.6529Z"
        fill="#F1F2F8" stroke="white" stroke-width="2.03175" />
    <circle cx="31.3467" cy="30.7944" r="28" fill="#6E51C5" stroke="white" stroke-width="5" />
    <mask id="path-8-inside-2_1754_1838" fill="white">
        <path
            d="M48.3535 26.3364C47.018 21.0228 38.6339 18.6625 29.5491 21.0058C37.7437 18.9196 45.4074 21.4648 46.7456 26.7647C48.1023 32.1293 42.4673 38.2857 34.1624 40.5084C25.8639 42.7339 18.0336 40.1873 16.6784 34.8213C15.3521 29.5776 20.712 23.5804 28.7124 21.2367C19.8278 23.8021 13.7535 29.9971 15.0738 35.251C16.4198 40.617 24.9631 42.9755 34.1504 40.5116C43.3391 38.0501 49.6981 31.701 48.3535 26.3364Z" />
    </mask>
    <path
        d="M48.3535 26.3364C47.018 21.0228 38.6339 18.6625 29.5491 21.0058C37.7437 18.9196 45.4074 21.4648 46.7456 26.7647C48.1023 32.1293 42.4673 38.2857 34.1624 40.5084C25.8639 42.7339 18.0336 40.1873 16.6784 34.8213C15.3521 29.5776 20.712 23.5804 28.7124 21.2367C19.8278 23.8021 13.7535 29.9971 15.0738 35.251C16.4198 40.617 24.9631 42.9755 34.1504 40.5116C43.3391 38.0501 49.6981 31.701 48.3535 26.3364Z"
        fill="#F1F2F8" />
    <path
        d="M48.3535 26.3364L50.3242 25.8424L50.3239 25.8412L48.3535 26.3364ZM29.5491 21.0058L29.0417 19.0384L30.0504 22.9747L29.5491 21.0058ZM46.7456 26.7647L44.7757 27.2621L44.7759 27.2628L46.7456 26.7647ZM34.1624 40.5084L33.6371 38.5457L33.6361 38.546L34.1624 40.5084ZM16.6784 34.8213L18.6483 34.3238L18.6481 34.3231L16.6784 34.8213ZM28.7124 21.2367L29.2835 23.1865L28.1487 19.2847L28.7124 21.2367ZM15.0738 35.251L17.0444 34.7566L17.0442 34.7558L15.0738 35.251ZM34.1504 40.5116L33.6247 38.549L33.6241 38.5492L34.1504 40.5116ZM50.3239 25.8412C49.4067 22.1917 46.1668 19.9073 42.4103 18.8447C38.6043 17.7681 33.8651 17.7943 29.0417 19.0384L30.0566 22.9731C34.3179 21.874 38.3131 21.9086 41.3042 22.7548C44.3449 23.6149 45.9647 25.1674 46.383 26.8316L50.3239 25.8412ZM30.0504 22.9747C33.8315 22.0121 37.393 22.1467 40.0748 23.0425C42.7749 23.9445 44.3318 25.504 44.7757 27.2621L48.7156 26.2672C47.8212 22.7255 44.8771 20.3625 41.3622 19.1884C37.8289 18.0081 33.4613 17.9132 29.0479 19.0368L30.0504 22.9747ZM44.7759 27.2628C45.229 29.0546 44.579 31.2577 42.5785 33.4428C40.5977 35.6064 37.4689 37.5202 33.6371 38.5457L34.6877 42.4711C39.1608 41.2739 43.0019 38.9981 45.5757 36.1867C48.1298 33.3968 49.6189 29.8394 48.7154 26.2665L44.7759 27.2628ZM33.6361 38.546C29.8066 39.573 26.1805 39.4693 23.4451 38.5796C20.6889 37.6831 19.0981 36.1047 18.6483 34.3238L14.7085 35.3188C15.6139 38.9039 18.6158 41.2818 22.1882 42.4438C25.7813 43.6125 30.2197 43.6693 34.6887 42.4708L33.6361 38.546ZM18.6481 34.3231C18.2052 32.572 18.8158 30.431 20.7169 28.2908C22.6018 26.1687 25.5937 24.2674 29.2835 23.1865L28.1412 19.2869C23.8306 20.5497 20.1424 22.8188 17.6789 25.5922C15.2315 28.3475 13.8253 31.8269 14.7086 35.3195L18.6481 34.3231ZM28.1487 19.2847C23.4299 20.6473 19.3629 22.9967 16.6118 25.817C13.8999 28.5972 12.2002 32.1526 13.1033 35.7461L17.0442 34.7558C16.627 33.0955 17.3044 30.9264 19.5207 28.6544C21.6979 26.4223 25.1102 24.3916 29.276 23.1887L28.1487 19.2847ZM13.1031 35.7453C14.0278 39.4318 17.3231 41.7256 21.1313 42.7761C24.9928 43.8413 29.7991 43.7821 34.6767 42.474L33.6241 38.5492C29.3143 39.705 25.2554 39.6985 22.2119 38.8589C19.1151 38.0046 17.4657 36.4361 17.0444 34.7566L13.1031 35.7453ZM34.6761 42.4741C39.5553 41.1671 43.775 38.8077 46.6373 35.9507C49.4551 33.138 51.2438 29.5109 50.3242 25.8424L46.3827 26.8304C46.8078 28.5265 46.0893 30.7562 43.7666 33.0747C41.4884 35.3487 37.9342 37.3946 33.6247 38.549L34.6761 42.4741Z"
        fill="white" mask="url(#path-8-inside-2_1754_1838)" />
    <path
        d="M26.1078 25.6649C26.0243 26.1243 25.9822 26.5916 25.9827 27.0612L25.9827 27.0617C25.9844 28.1801 26.2243 29.2833 26.6841 30.2984C26.2241 31.3135 25.9842 32.4167 25.9827 33.5353L25.9827 33.5355C25.9822 33.9985 26.0232 34.4594 26.1046 34.9126C25.4749 34.6299 24.9042 34.2191 24.4319 33.6999C23.5823 32.7662 23.1119 31.5491 23.1126 30.2868C23.1132 29.0245 23.585 27.8079 24.4355 26.8751C24.908 26.3569 25.4785 25.9469 26.1078 25.6649Z"
        fill="#F1F2F8" stroke="white" stroke-width="2.03175" />
    <path
        d="M30.2576 26.5375C29.7331 26.8076 29.2426 27.1349 28.7945 27.5122C28.7683 27.2305 28.7656 26.9461 28.787 26.6621C28.8506 25.8187 29.1241 25.0045 29.5827 24.2938C30.0413 23.5831 30.6704 22.9984 31.4128 22.5929C32.1551 22.1875 32.9871 21.9742 33.833 21.9724C34.6789 21.9707 35.5117 22.1805 36.2558 22.5829C36.9998 22.9853 37.6313 23.5674 38.0929 24.2762C38.5544 24.985 38.8313 25.798 38.8983 26.6412C38.9209 26.9251 38.9194 27.2095 38.8944 27.4913C38.4447 27.1158 37.9529 26.7906 37.4273 26.5226C36.3167 25.9564 35.0873 25.6625 33.8406 25.6651C32.594 25.6676 31.3658 25.9667 30.2576 26.5375Z"
        fill="#F1F2F8" stroke="white" stroke-width="2.03175" />
    <path
        d="M36.8076 37.6529L36.8089 37.652C37.8998 36.864 38.6337 35.6757 38.8498 34.3475C39.0657 33.02 38.7467 31.661 37.9626 30.5683C37.4907 29.9174 36.8715 29.3873 36.1556 29.0213C35.4394 28.6552 34.6467 28.4638 33.8424 28.4627C32.9092 28.4637 31.9943 28.7219 31.1984 29.2091C30.4022 29.6964 29.7558 30.3939 29.3303 31.2248C28.9049 32.0558 28.7169 32.9879 28.7871 33.9188C28.8571 34.849 29.1823 35.7419 29.7268 36.4994C30.1995 37.1512 30.8197 37.682 31.5366 38.0485C32.2541 38.4152 33.0481 38.6071 33.8539 38.6083L36.8076 37.6529ZM36.8076 37.6529C35.9487 38.2753 34.9147 38.6098 33.854 38.6083L36.8076 37.6529Z"
        fill="#F1F2F8" stroke="white" stroke-width="2.03175" />
</svg>