<svg xmlns="http://www.w3.org/2000/svg" width="19" height="4" viewBox="0 0 19 4" fill="none">
    <path fill-rule="evenodd" clip-rule="evenodd"
        d="M14.6163 0.0886222C13.4023 0.234532 12.2086 0.510851 11.057 0.912537C10.6967 1.06299 10.3216 1.14897 9.96128 1.29942C9.22589 1.5645 8.53462 1.80093 7.80658 2.07318C7.5639 2.15916 5.82838 2.66067 5.52686 2.72515C4.05608 3.07621 1.8499 3.49175 0.445306 2.86844C-0.223901 2.54604 -0.290086 3.54907 1.23218 3.90729C2.12239 4.05918 3.0359 4.02006 3.909 3.79266C4.64439 3.6422 5.52686 3.37712 6.22549 3.16935C6.92411 2.96158 7.74775 2.72515 8.5052 2.51738C8.68905 2.4529 8.83613 2.39559 9.04939 2.33827L10.1745 2.0087C10.3878 1.95139 10.5422 1.86541 10.7261 1.80093L11.888 1.53585C12.1013 1.47853 12.2557 1.42122 12.4395 1.35673C13.9792 1.03673 15.5497 0.87821 17.124 0.883879C17.5138 0.883879 18.0947 0.977018 18.4918 1.03433C19.2272 1.12031 19.0654 0.74059 18.5801 0.496997C17.3181 0.0259203 15.9515 -0.114878 14.6163 0.0886222Z"
        fill="white" />
</svg>