<svg xmlns="http://www.w3.org/2000/svg" width="70" height="72" viewBox="0 0 70 72" fill="none">
    <path
        d="M34.0363 26.979L34.9829 27.981L35.9294 26.979C37.2292 25.6021 38.9956 24.8249 40.84 24.8185C41.7532 24.8153 42.6581 25.0014 43.503 25.3661C44.3478 25.7309 45.1162 26.2672 45.7641 26.9445C46.412 27.6217 46.9268 28.4266 47.2791 29.3131C47.6314 30.1997 47.8143 31.1506 47.8173 32.1116C47.8203 33.0725 47.6435 34.0247 47.2968 34.9137C46.9502 35.8027 46.4405 36.6112 45.7969 37.293L34.9829 48.744L24.1689 37.29C22.8691 35.9131 22.1423 34.0493 22.1485 32.1086C22.1515 31.1476 22.3344 30.1967 22.6867 29.3101C23.039 28.4236 23.5538 27.6187 24.2017 26.9415C24.8496 26.2642 25.6179 25.7279 26.4628 25.3631C27.3077 24.9984 28.2126 24.8123 29.1258 24.8155C30.9702 24.8219 32.7365 25.5991 34.0363 26.976V26.979Z"
        stroke="#6E51C5" stroke-width="3" vector-effect="non-scaling-stroke" />
    <path
        d="M56.3658 16.155C53.693 12.9595 50.4031 10.4008 46.7158 8.64964C43.0284 6.89847 39.0285 5.99516 34.983 6.00002C19.2367 6.00002 6.47266 19.431 6.47266 36C6.47266 39.135 6.92882 42.159 7.77843 45"
        stroke="#6E51C5" stroke-width="3" vector-effect="non-scaling-stroke" />
    <path
        d="M13.6016 55.845C16.2744 59.0405 19.5642 61.5992 23.2516 63.3504C26.9389 65.1015 30.9388 66.0049 34.9843 66C50.7306 66 63.4947 52.569 63.4947 36C63.498 32.9475 63.0576 29.9124 62.1889 27"
        stroke="#6E51C5" stroke-width="3" vector-effect="non-scaling-stroke" />
    <path d="M56.3651 4.5V16.5H44.9609" stroke="#6E51C5" stroke-width="3" vector-effect="non-scaling-stroke" />
    <path d="M13.6016 67.5V55.5H25.0057" stroke="#6E51C5" stroke-width="3" vector-effect="non-scaling-stroke" />
</svg>