<svg xmlns="http://www.w3.org/2000/svg" width="32" height="32" viewBox="0 0 32 32" fill="none">
    <path
        d="M11.9547 5.14288L12.9375 2.60574C13.1033 2.17617 13.3949 1.80668 13.7742 1.54565C14.1535 1.28463 14.6028 1.14424 15.0632 1.14288H16.9375C17.3979 1.14424 17.8473 1.28463 18.2265 1.54565C18.6059 1.80668 18.8975 2.17617 19.0632 2.60574L20.0461 5.14288L23.3831 7.06288L26.0803 6.65146C26.5294 6.5905 26.9866 6.66441 27.3937 6.86384C27.8005 7.06327 28.139 7.37918 28.366 7.77145L29.2803 9.37146C29.5146 9.76997 29.6227 10.2302 29.59 10.6913C29.5573 11.1524 29.3857 11.5928 29.0974 11.9543L27.4289 14.08V17.92L29.1431 20.0457C29.4314 20.4073 29.603 20.8477 29.6357 21.3088C29.6684 21.7699 29.5603 22.2301 29.326 22.6286L28.4117 24.2286C28.1847 24.6208 27.8462 24.9367 27.4394 25.1363C27.0323 25.3356 26.5751 25.4096 26.126 25.3486L23.4289 24.9372L20.0918 26.8572L19.1089 29.3943C18.9432 29.8238 18.6516 30.1934 18.2723 30.4544C17.893 30.7155 17.4437 30.8558 16.9832 30.8572H15.0632C14.6028 30.8558 14.1535 30.7155 13.7742 30.4544C13.3949 30.1934 13.1033 29.8238 12.9375 29.3943L11.9547 26.8572L8.61752 24.9372L5.92037 25.3486C5.47128 25.4096 5.01418 25.3356 4.60718 25.1363C4.20021 24.9367 3.8617 24.6208 3.63466 24.2286L2.72037 22.6286C2.48609 22.2301 2.37816 21.7699 2.4108 21.3088C2.44344 20.8477 2.61514 20.4073 2.90323 20.0457L4.5718 17.92V14.08L2.85752 11.9543C2.56942 11.5928 2.39772 11.1524 2.36508 10.6913C2.33244 10.2302 2.44037 9.76997 2.67466 9.37146L3.58894 7.77145C3.81598 7.37918 4.1545 7.06327 4.56147 6.86384C4.96846 6.66441 5.42556 6.5905 5.87466 6.65146L8.5718 7.06288L11.9547 5.14288ZM11.4289 16C11.4289 16.9042 11.6971 17.788 12.1994 18.5398C12.7017 19.2915 13.4156 19.8775 14.251 20.2235C15.0863 20.5695 16.0054 20.66 16.8922 20.4836C17.779 20.3072 18.5935 19.8718 19.2329 19.2325C19.8722 18.5932 20.3076 17.7786 20.484 16.8919C20.6603 16.0051 20.5698 15.0859 20.2238 14.2506C19.8778 13.4153 19.2919 12.7013 18.5401 12.199C17.7883 11.6967 16.9045 11.4286 16.0004 11.4286C14.788 11.4286 13.6252 11.9102 12.7679 12.7675C11.9106 13.6248 11.4289 14.7876 11.4289 16Z"
        stroke="#808080" stroke-width="1.4" stroke-linecap="round" stroke-linejoin="round"
        vector-effect="non-scaling-stroke" />
</svg>