<svg xmlns="http://www.w3.org/2000/svg" width="32" height="32" viewBox="0 0 32 32" fill="none">
    <path
        d="M25.0877 25.0866C29.3016 20.8728 29.8063 15.4903 28.5405 11.2893C28.3108 10.5266 28.4283 9.70205 28.8033 8.99933C29.8116 7.11007 29.8385 5.15311 28.3448 3.65944C26.8502 2.16491 24.892 2.1927 23.0017 3.2026C22.2993 3.57784 21.475 3.69583 20.7125 3.46653C16.5125 2.20354 11.134 2.7103 6.92262 6.92164C2.713 11.1313 2.20494 16.5071 3.46593 20.7063C3.69492 21.4688 3.5767 22.2929 3.20129 22.995C2.19022 24.8859 2.16181 26.8452 3.65695 28.3403C5.15002 29.8334 7.10602 29.8071 8.99457 28.8C9.69754 28.4254 10.5224 28.3079 11.2851 28.538C15.4869 29.8057 20.872 29.3022 25.0877 25.0866Z"
        stroke="#808080" stroke-width="1.4" vector-effect="non-scaling-stroke" />
    <path
        d="M19.0871 7.78984C16.3355 6.96242 12.8117 7.29439 10.0527 10.0535C8.53953 11.5666 7.75638 13.3098 7.49414 15.0294"
        stroke="#808080" stroke-width="1.4" stroke-linecap="round" vector-effect="non-scaling-stroke" />
</svg>