<svg xmlns="http://www.w3.org/2000/svg" width="32" height="32" viewBox="0 0 32 32" fill="none">
    <path
        d="M26.3101 12.3234C30.8815 18.761 27.3843 26.1347 25.6929 29.011C25.4449 29.4133 25.1117 29.7566 24.7169 30.0169C24.3219 30.2771 23.8751 30.448 23.4072 30.5175C20.0929 31.0883 11.8414 31.7276 7.40714 25.2899C3.04142 19.2176 3.22428 8.53394 3.61285 3.44323C3.62817 3.06396 3.73345 2.69374 3.92005 2.36304C4.10666 2.03236 4.36922 1.75066 4.68613 1.54113C5.00305 1.33161 5.36524 1.20025 5.74293 1.15787C6.12062 1.11549 6.503 1.1633 6.85857 1.29737C11.7729 2.71273 22.0129 6.25111 26.3101 12.3234Z"
        stroke="#808080" stroke-width="1.4" stroke-linecap="round" stroke-linejoin="round"
        vector-effect="non-scaling-stroke" />
    <path d="M10.9043 10.2004C16.1398 16.3623 20.7348 23.0396 24.6186 30.1294" stroke="#808080" stroke-width="1.4"
        stroke-linecap="round" stroke-linejoin="round" vector-effect="non-scaling-stroke" />
</svg>