<svg xmlns="http://www.w3.org/2000/svg" width="32" height="32" viewBox="0 0 32 32" fill="none">
    <path
        d="M27.1744 12.3268C25.246 14.0053 22.2127 13.7192 20.6321 11.7099C19.0515 9.70052 19.4878 6.68519 21.5733 5.20637C23.5235 3.66436 29.7141 4.57143 29.7141 4.57143C29.7141 4.57143 29.1472 10.7848 27.1744 12.3268Z"
        stroke="#808080" stroke-width="1.4" stroke-linecap="round" stroke-linejoin="round"
        vector-effect="non-scaling-stroke" />
    <path
        d="M6.79456 16.1669C8.48336 17.6369 11.1398 17.3864 12.5241 15.6267C13.9073 13.8683 13.5054 11.2114 11.6998 9.93104C9.99193 8.58061 4.57031 9.37499 4.57031 9.37499C4.57031 9.37499 5.06679 14.8165 6.79456 16.1669Z"
        stroke="#808080" stroke-width="1.4" stroke-linecap="round" stroke-linejoin="round"
        vector-effect="non-scaling-stroke" />
    <path
        d="M1.14258 27.4285C1.14258 27.4285 5.71401 22.8571 15.9997 22.8571C26.2854 22.8571 30.8569 27.4285 30.8569 27.4285"
        stroke="#808080" stroke-width="1.4" stroke-linecap="round" stroke-linejoin="round"
        vector-effect="non-scaling-stroke" />
    <path
        d="M20.8428 11.9682L20.5386 12.2522C18.2529 14.5379 16.2192 19.8032 15.9997 22.8572C15.9997 19.239 15.3017 17.6331 12.7543 15.5884L12.6426 15.4822"
        stroke="#808080" stroke-width="1.4" stroke-linecap="round" stroke-linejoin="round"
        vector-effect="non-scaling-stroke" />
</svg>