<svg xmlns="http://www.w3.org/2000/svg" width="69" height="72" viewBox="0 0 69 72" fill="none">
    <path
        d="M61.1093 2.57227H17.1219C14.4226 2.57227 12.2344 4.8748 12.2344 7.71512V18.0008C12.2344 20.8411 14.4226 23.1437 17.1219 23.1437H61.1093C63.8086 23.1437 65.9968 20.8411 65.9968 18.0008V7.71512C65.9968 4.8748 63.8086 2.57227 61.1093 2.57227Z"
        stroke="#6E51C5" stroke-width="3" stroke-linecap="round" stroke-linejoin="round"
        vector-effect="non-scaling-stroke" />
    <path
        d="M39.1171 48.8574V43.7146C39.1171 40.9866 38.0873 38.3704 36.2541 36.4415C34.4209 34.5125 31.9346 33.4289 29.3421 33.4289H12.2359C9.64345 33.4289 7.15713 32.3452 5.32398 30.4162C3.4908 28.4873 2.46094 25.8711 2.46094 23.1431V18.0003C2.46094 16.6363 2.97587 15.3282 3.89245 14.3637C4.80903 13.3993 6.05217 12.8574 7.34843 12.8574H12.2359"
        stroke="#6E51C5" stroke-width="3" stroke-linecap="round" stroke-linejoin="round"
        vector-effect="non-scaling-stroke" />
    <path
        d="M31.7852 69.4288V54.0003C31.7852 52.6364 32.3001 51.3282 33.2167 50.3637C34.1333 49.3993 35.3764 48.8574 36.6726 48.8574H41.5601C42.8564 48.8574 44.0995 49.3993 45.0161 50.3637C45.9327 51.3282 46.4476 52.6364 46.4476 54.0003V69.4288"
        stroke="#6E51C5" stroke-width="3" stroke-linecap="round" stroke-linejoin="round"
        vector-effect="non-scaling-stroke" />
</svg>