<svg xmlns="http://www.w3.org/2000/svg" width="67" height="70" viewBox="0 0 67 70" fill="none">
    <path
        d="M45.7949 62.1551C45.7404 61.1574 45.411 60.1983 44.8468 59.3944C44.2826 58.5911 43.5082 57.9776 42.6181 57.6294C40.4074 56.8647 38.5285 55.2956 37.3191 53.204C36.1098 51.1119 35.6492 48.6349 36.0203 46.2177C36.3913 43.8005 37.5697 41.6019 39.3435 40.0172C41.1174 38.4325 43.3702 37.5655 45.6972 37.5723H54.8367C56.4041 37.5769 57.95 37.1847 59.3434 36.4289C60.7364 35.673 61.9367 34.5756 62.8424 33.2293C63.748 31.883 64.3326 30.3272 64.5472 28.6933C64.7617 27.0593 64.5994 25.395 64.074 23.8408C62.1303 18.0653 58.7149 12.9629 54.2018 9.09138C49.6887 5.21979 44.2512 2.72789 38.4833 1.88791C32.7154 1.04792 26.8391 1.89218 21.4963 4.32843C16.1535 6.7647 11.5498 10.6992 8.18817 15.7022C4.82656 20.7051 2.83634 26.584 2.43495 32.6965C2.03357 38.8091 3.23646 44.9201 5.91222 50.362C8.58792 55.8037 12.6336 60.3675 17.6072 63.5535C22.5808 66.74 28.2909 68.4268 34.1138 68.4294C36.9894 68.4376 39.852 68.0226 42.6181 67.1951C43.634 66.8958 44.5138 66.2216 45.0969 65.2964C45.6801 64.3712 45.9278 63.2567 45.7949 62.1551Z"
        stroke="#6E51C5" stroke-width="3" stroke-linecap="round" stroke-linejoin="round"
        vector-effect="non-scaling-stroke" />
</svg>