<svg width="150" height="140" viewBox="0 0 150 140" fill="none" xmlns="http://www.w3.org/2000/svg">
    <path fill-rule="evenodd" clip-rule="evenodd"
        d="M56.619 109.048H80.5685C92.1665 109.048 101.569 99.6462 101.569 88.0482V48C101.569 45.2386 99.33 43 96.5685 43H72.619C61.0211 43 51.619 52.402 51.619 64V104.048C51.619 106.81 53.8576 109.048 56.619 109.048ZM56.619 112.048C52.2007 112.048 48.619 108.466 48.619 104.048V64C48.619 50.7452 59.3642 40 72.619 40H96.5685C100.987 40 104.569 43.5817 104.569 48V88.0482C104.569 101.303 93.8233 112.048 80.5685 112.048H56.619Z"
        fill="#6E51C5" />
    <path fill-rule="evenodd" clip-rule="evenodd"
        d="M62.9937 28H60C58.9376 28 57.8913 28.069 56.8654 28.2029L57.0594 29.6903C58.0212 29.5648 59.0027 29.5 60 29.5H62.9937V28ZM50.8131 29.8211L51.3877 31.2067C49.5593 31.9649 47.8519 32.9576 46.3032 34.1478L45.3892 32.9584C47.0407 31.6893 48.862 30.6302 50.8131 29.8211ZM40.9584 37.3892L42.1478 38.3032C40.9577 39.8519 39.9649 41.5593 39.2067 43.3877L37.8211 42.8131C38.6302 40.8619 39.6893 39.0407 40.9584 37.3892ZM36 88.7108H37.5V92.0482C37.5 92.9323 37.6757 93.7716 37.9926 94.5359L36.607 95.1105C36.2159 94.1672 36 93.1329 36 92.0482V88.7108ZM64.9558 100.048V98.5482H67.9495C68.9469 98.5482 69.9283 98.4834 70.8901 98.3579L71.0841 99.8453C70.0582 99.9792 69.0119 100.048 67.9495 100.048H64.9558ZM77.1364 98.2271L76.5618 96.8415C78.3902 96.0833 80.0976 95.0906 81.6463 93.9004L82.5603 95.0898C80.9088 96.3589 79.0875 97.418 77.1364 98.2271ZM86.9911 90.659L85.8017 89.745C86.9919 88.1963 87.9846 86.4889 88.7428 84.6605L90.1284 85.2351C89.3193 87.1863 88.2602 89.0075 86.9911 90.659ZM91.9495 39.3374H90.4495V36C90.4495 35.1159 90.2738 34.2766 89.9569 33.5123L91.3425 32.9377C91.7336 33.881 91.9495 34.9153 91.9495 36V39.3374ZM68.9811 28V29.5H74.9685V28H68.9811ZM80.9558 28V29.5H83.9495C84.8336 29.5 85.6729 29.6757 86.4372 29.9926L87.0118 28.607C86.0686 28.2159 85.0342 28 83.9495 28H80.9558ZM91.9495 46.0121H90.4495V52.6868H91.9495V46.0121ZM91.9495 59.3615H90.4495V66.0362H91.9495V59.3615ZM91.9495 72.7109H90.4495V76.0482C90.4495 77.0456 90.3847 78.0271 90.2593 78.9888L91.7467 79.1828C91.8805 78.1569 91.9495 77.1106 91.9495 76.0482V72.7109ZM58.9684 100.048V98.5482H52.9811V100.048H58.9684ZM46.9937 100.048V98.5482H44C43.1159 98.5482 42.2766 98.3725 41.5123 98.0556L40.9377 99.4412C41.881 99.8323 42.9153 100.048 44 100.048H46.9937ZM36 82.0361H37.5V75.3614H36V82.0361ZM36 68.6867H37.5V62.012H36V68.6867ZM36 55.3373H37.5V52C37.5 51.0026 37.5648 50.0212 37.6903 49.0594L36.2029 48.8654C36.069 49.8913 36 50.9376 36 52V55.3373Z"
        fill="#6E51C5" />
</svg>