<svg width="150" height="140" viewBox="0 0 150 140" fill="none" xmlns="http://www.w3.org/2000/svg">
    <path fill-rule="evenodd" clip-rule="evenodd"
        d="M43.5138 26.3804C43.0474 26.8685 42.6389 27.424 42.3024 28.0385L40.7672 30.8423L42.0485 31.6223L43.5837 28.8185C43.8572 28.3189 44.1891 27.8677 44.5679 27.4713L43.5138 26.3804ZM25.415 58.8801L26.6963 59.6601L25.161 62.4639C24.8875 62.9635 24.6828 63.4921 24.5467 64.0362L23.1237 63.6191C23.2913 62.9492 23.5433 62.2984 23.8798 61.6839L25.415 58.8801ZM23.1462 67.7956L24.565 67.4298C24.7071 67.9788 24.9175 68.5149 25.1965 69.0244L26.7169 71.8011L25.4438 72.5351L23.9234 69.7584C23.5802 69.1317 23.3212 68.4717 23.1462 67.7956ZM28.4846 78.0885L29.7577 77.3546L32.7984 82.908L31.5254 83.6419L28.4846 78.0885ZM34.5661 89.1953L35.8392 88.4614L38.88 94.0148L37.6069 94.7488L34.5661 89.1953ZM40.6477 100.302L41.9208 99.5682L43.4412 102.345C43.7298 102.872 44.0801 103.349 44.4791 103.769L43.4456 104.832C42.9543 104.315 42.5231 103.727 42.1681 103.079L40.6477 100.302ZM47.059 107.032L47.4151 105.557C47.9595 105.711 48.5266 105.792 49.1039 105.792L52.1447 105.792L52.1784 107.322L49.1376 107.322C48.4276 107.322 47.7294 107.222 47.059 107.032ZM58.2599 107.322L58.2262 105.792L64.3078 105.792L64.3415 107.322L58.2599 107.322ZM70.4231 107.322L70.3894 105.792L76.4709 105.792L76.5046 107.322L70.4231 107.322ZM82.5862 107.322L82.5525 105.792L85.5933 105.792C86.1513 105.792 86.6968 105.716 87.2188 105.571L87.6277 107.05C86.985 107.228 86.3133 107.322 85.627 107.322L82.5862 107.322ZM109.168 72.4826L107.887 71.7026L109.422 68.8988C109.696 68.3992 109.9 67.8706 110.036 67.3266L111.459 67.7436C111.292 68.4135 111.04 69.0643 110.703 69.6788L109.168 72.4826ZM111.437 63.5671L110.018 63.933C109.876 63.3839 109.666 62.8478 109.387 62.3383L107.866 59.5616L109.139 58.8276L110.66 61.6043C111.003 62.231 111.262 62.891 111.437 63.5671ZM106.099 53.2742L104.825 54.0082L101.785 48.4547L103.058 47.7208L106.099 53.2742ZM100.017 42.1674L98.7439 42.9013L95.7031 37.3479L96.9762 36.614L100.017 42.1674ZM93.9354 31.0605L92.6623 31.7945L91.1419 29.0178C90.8533 28.4907 90.503 28.0135 90.104 27.5935L91.1375 26.5308C91.6288 27.0479 92.06 27.6355 92.415 28.2838L93.9354 31.0605ZM87.5241 24.3311L87.168 25.8062C86.6236 25.6518 86.0565 25.5705 85.4792 25.5705L82.4384 25.5705L82.4047 24.041L85.4455 24.041C86.1555 24.041 86.8537 24.141 87.5241 24.3311ZM76.3231 24.041L76.3568 25.5705L70.2753 25.5705L70.2416 24.041L76.3231 24.041ZM64.16 24.041L64.1937 25.5705L58.1121 25.5705L58.0784 24.041L64.16 24.041ZM51.9969 24.041L52.0306 25.5705L48.9898 25.5705C48.4318 25.5705 47.8862 25.6465 47.3643 25.7913L46.9554 24.3128C47.5981 24.1345 48.2698 24.041 48.9561 24.041L51.9969 24.041ZM106.098 78.0902L104.816 77.3102L101.746 82.9177L103.027 83.6977L106.098 78.0902ZM99.9567 89.3053L98.6755 88.5253L95.605 94.1329L96.8863 94.9129L99.9567 89.3053ZM93.8159 100.52L92.5346 99.7405L90.9994 102.544C90.7258 103.044 90.3939 103.495 90.0152 103.891L91.0693 104.982C91.5356 104.494 91.9442 103.939 92.2806 103.324L93.8159 100.52ZM28.4855 53.2726L29.7667 54.0525L32.8372 48.445L31.5559 47.665L28.4855 53.2726ZM34.6263 42.0574L35.9076 42.8374L38.978 37.2298L37.6968 36.4498L34.6263 42.0574Z"
        fill="#6E51C5" />
    <path fill-rule="evenodd" clip-rule="evenodd"
        d="M123.531 71.7095L105.286 38.389C104.391 36.7541 102.72 35.7373 100.93 35.7373L64.4405 35.7373C62.7106 35.7373 61.13 36.6869 60.282 38.2357L41.8593 71.8811C41.0113 73.4299 41.0216 75.3481 41.8866 76.9277L60.1313 110.248C61.0265 111.883 62.6967 112.9 64.4872 112.9L100.977 112.9C102.706 112.9 104.287 111.95 105.135 110.401L123.558 76.7561C124.406 75.2073 124.395 73.2891 123.531 71.7095ZM107.832 36.9211C106.4 34.3051 103.727 32.6783 100.862 32.6783L64.3731 32.6783C61.6053 32.6783 59.0763 34.1977 57.7194 36.6757L39.2968 70.3211C37.94 72.7992 37.9565 75.8683 39.3404 78.3957L57.5851 111.716C59.0175 114.332 61.6898 115.959 64.5546 115.959L101.044 115.959C103.812 115.959 106.341 114.439 107.698 111.961L126.12 78.316C127.477 75.838 127.461 72.7689 126.077 70.2415L107.832 36.9211Z"
        fill="#6E51C5" />
</svg>