<svg width="150" height="140" viewBox="0 0 150 140" fill="none" xmlns="http://www.w3.org/2000/svg">
    <path fill-rule="evenodd" clip-rule="evenodd"
        d="M113 49H49C46.2386 49 44 51.2386 44 54V87C44 98.598 53.402 108 65 108H97C108.598 108 118 98.598 118 87V54C118 51.2386 115.761 49 113 49ZM49 46C44.5817 46 41 49.5817 41 54V87C41 100.255 51.7452 111 65 111H97C110.255 111 121 100.255 121 87V54C121 49.5817 117.418 46 113 46H49Z"
        fill="#6E51C5" />
    <path fill-rule="evenodd" clip-rule="evenodd"
        d="M49.8654 92.7971L50.0594 91.3097C51.0212 91.4352 52.0026 91.5 53 91.5H55.6667V93H53C51.9376 93 50.8913 92.931 49.8654 92.7971ZM82.3333 93V91.5H85C85.9974 91.5 86.9788 91.4352 87.9406 91.3097L88.1346 92.7971C87.1087 92.931 86.0624 93 85 93H82.3333ZM94.1869 91.1789L93.6123 89.7933C95.4407 89.0351 97.1481 88.0424 98.6968 86.8522L99.6108 88.0416C97.9593 89.3107 96.138 90.3698 94.1869 91.1789ZM104.042 83.6108L102.852 82.6968C104.042 81.1481 105.035 79.4407 105.793 77.6123L107.179 78.1869C106.37 80.1381 105.311 81.9593 104.042 83.6108ZM109 38.75H107.5V36C107.5 35.1159 107.324 34.2766 107.007 33.5123L108.393 32.9377C108.784 33.881 109 34.9153 109 36V38.75ZM53 28H46.6V29.5H53V28ZM40.2 28V29.5H37C36.1159 29.5 35.2766 29.6757 34.5123 29.9926L33.9377 28.607C34.881 28.2159 35.9153 28 37 28H40.2ZM29 66.25H30.5V69C30.5 69.9974 30.5648 70.9788 30.6903 71.9406L29.2029 72.1346C29.069 71.1087 29 70.0624 29 69V66.25ZM30.8211 78.1869L32.2067 77.6123C32.9649 79.4407 33.9576 81.1481 35.1478 82.6968L33.9584 83.6108C32.6893 81.9593 31.6302 80.138 30.8211 78.1869ZM38.3892 88.0416L39.3032 86.8522C40.8519 88.0424 42.5593 89.0351 44.3877 89.7933L43.8131 91.1789C41.862 90.3698 40.0407 89.3107 38.3892 88.0416ZM29 60.75H30.5V55.25H29V60.75ZM29 49.75H30.5V44.25H29V49.75ZM29 38.75H30.5V36C30.5 35.1159 30.6757 34.2766 30.9926 33.5123L29.607 32.9377C29.2159 33.881 29 34.9153 29 36V38.75ZM59.4 28V29.5H65.8V28H59.4ZM72.2 28V29.5H78.6V28H72.2ZM85 28V29.5H91.4V28H85ZM97.8 28V29.5H101C101.884 29.5 102.723 29.6757 103.488 29.9926L104.062 28.607C103.119 28.2159 102.085 28 101 28H97.8ZM109 44.25H107.5V49.75H109V44.25ZM109 55.25H107.5V60.75H109V55.25ZM109 66.25H107.5V69C107.5 69.9974 107.435 70.9788 107.31 71.9406L108.797 72.1346C108.931 71.1087 109 70.0624 109 69V66.25ZM77 93V91.5H71.6667V93H77ZM66.3333 93V91.5H61V93H66.3333Z"
        fill="#6E51C5" />
</svg>