<svg width="150" height="140" viewBox="0 0 150 140" fill="none" xmlns="http://www.w3.org/2000/svg">
    <path fill-rule="evenodd" clip-rule="evenodd"
        d="M42.872 59.2702L43.7562 62.5858C44.1163 63.9364 44.1163 65.3578 43.7562 66.7084L42.872 70.0239L44.3214 70.4104L45.2055 67.0949C45.6332 65.491 45.6332 63.8031 45.2055 62.1993L44.3214 58.8837L42.872 59.2702ZM41.1037 76.655L42.5531 77.0415L40.7848 83.6726L39.3354 83.2861L41.1037 76.655ZM37.5671 89.9173L39.0165 90.3038L38.1324 93.6193C37.8623 94.6321 37.8458 95.6325 38.0335 96.5677L36.5628 96.8629C36.3306 95.706 36.3525 94.4723 36.683 93.2328L37.5671 89.9173ZM70.0015 103.294V101.794H73.6571C74.3615 101.794 75.0443 101.681 75.6863 101.47L76.1548 102.895C75.3637 103.155 74.5228 103.294 73.6571 103.294H70.0015ZM80.1764 99.9318L78.9542 99.0621C79.346 98.5115 79.6565 97.8929 79.8652 97.2201L80.6575 94.6662L82.0901 95.1107L81.2978 97.6646C81.0413 98.4915 80.6592 99.2533 80.1764 99.9318ZM83.6748 90.0028L82.2422 89.5584L83.8268 84.4505L85.2594 84.895L83.6748 90.0028ZM86.8441 79.7871L85.4115 79.3427L86.9961 74.2348L88.4288 74.6793L86.8441 79.7871ZM90.0134 69.5714L88.5808 69.127L89.3731 66.5731C89.7623 65.3186 89.7623 63.9756 89.3731 62.7211L88.5808 60.1671L90.0134 59.7227L90.8058 62.2766C91.2848 63.8206 91.2848 65.4735 90.8057 67.0175L90.0134 69.5714ZM88.4288 54.6148L86.8441 49.507L85.4115 49.9515L86.9961 55.0593L88.4288 54.6148ZM85.2594 44.3991L83.6748 39.2913L82.2422 39.7358L83.8268 44.8436L85.2594 44.3991ZM82.0901 34.1835L80.6575 34.6279L79.8652 32.074C79.6565 31.4012 79.346 30.7826 78.9542 30.232L80.1764 29.3623C80.6592 30.0408 81.0413 30.8027 81.2978 31.6295L82.0901 34.1835ZM48.0684 26V27.5H44.4129C43.3647 27.5 42.3939 27.7418 41.5385 28.1642L40.8744 26.8192C41.9324 26.2967 43.1301 26 44.4129 26H48.0684ZM36.5628 32.4312L38.0335 32.7264C37.8458 33.6617 37.8623 34.662 38.1324 35.6748L39.0165 38.9904L37.5671 39.3769L36.683 36.0613C36.3525 34.8219 36.3306 33.5882 36.5628 32.4312ZM39.3354 46.008L40.7848 45.6215L42.5531 52.2526L41.1037 52.6391L39.3354 46.008ZM55.3794 26V27.5H62.6905V26H55.3794ZM70.0015 26V27.5H73.6571C74.3614 27.5 75.0443 27.6132 75.6863 27.8243L76.1548 26.3993C75.3637 26.1392 74.5228 26 73.6571 26H70.0015ZM62.6905 103.294V101.794H55.3795V103.294H62.6905ZM48.0684 103.294V101.794H44.4129C43.3647 101.794 42.3939 101.552 41.5385 101.13L40.8744 102.475C41.9324 102.997 43.1301 103.294 44.4129 103.294H48.0684Z"
        fill="#6E51C5" />
    <path fill-rule="evenodd" clip-rule="evenodd"
        d="M88.9431 38.4473H58.8732C55.615 38.4473 53.2272 41.5136 54.0256 44.6725L60.8891 71.8283C61.3363 73.5974 61.3363 75.45 60.8891 77.2192L54.0256 104.375C53.2272 107.534 55.615 110.6 58.8731 110.6H88.9431C91.1319 110.6 93.0662 109.177 93.717 107.087L103.395 76.0104C103.696 75.0422 103.696 74.0053 103.395 73.0371L93.717 41.9606C93.0662 39.8709 91.1319 38.4473 88.9431 38.4473ZM58.8732 35.4473C53.6601 35.4473 49.8396 40.3534 51.1171 45.4076L57.9806 72.5634C58.3058 73.8501 58.3058 75.1974 57.9806 76.4841L51.1171 103.64C49.8396 108.694 53.66 113.6 58.8731 113.6H88.9431C92.4452 113.6 95.5401 111.322 96.5813 107.979L106.259 76.9024C106.741 75.3533 106.741 73.6942 106.259 72.1451L96.5813 41.0686C95.5401 37.725 92.4452 35.4473 88.9431 35.4473H58.8732Z"
        fill="#6E51C5" />
</svg>