<svg xmlns="http://www.w3.org/2000/svg" width="72" height="72" viewBox="0 0 72 72" fill="none">
    <path fill-rule="evenodd" clip-rule="evenodd" d="M22.5 37.5H3V34.5H22.5V37.5Z" fill="#6E51C5" />
    <path fill-rule="evenodd" clip-rule="evenodd" d="M69 37.5H49.5V34.5H69V37.5Z" fill="#6E51C5" />
    <path fill-rule="evenodd" clip-rule="evenodd"
        d="M36 31.5C33.5147 31.5 31.5 33.5147 31.5 36C31.5 38.4853 33.5147 40.5 36 40.5C38.4853 40.5 40.5 38.4853 40.5 36C40.5 33.5147 38.4853 31.5 36 31.5ZM28.5 36C28.5 31.8579 31.8579 28.5 36 28.5C40.1421 28.5 43.5 31.8579 43.5 36C43.5 40.1421 40.1421 43.5 36 43.5C31.8579 43.5 28.5 40.1421 28.5 36Z"
        fill="#6E51C5" />
    <path fill-rule="evenodd" clip-rule="evenodd" d="M69 13.5H25.5V10.5H69V13.5Z" fill="#6E51C5" />
    <path fill-rule="evenodd" clip-rule="evenodd"
        d="M12 7.5C9.51472 7.5 7.5 9.51472 7.5 12C7.5 14.4853 9.51472 16.5 12 16.5C14.4853 16.5 16.5 14.4853 16.5 12C16.5 9.51472 14.4853 7.5 12 7.5ZM4.5 12C4.5 7.85786 7.85786 4.5 12 4.5C16.1421 4.5 19.5 7.85786 19.5 12C19.5 16.1421 16.1421 19.5 12 19.5C7.85786 19.5 4.5 16.1421 4.5 12Z"
        fill="#6E51C5" />
    <path fill-rule="evenodd" clip-rule="evenodd" d="M46.5 61.5H3V58.5H46.5V61.5Z" fill="#6E51C5" />
    <path fill-rule="evenodd" clip-rule="evenodd"
        d="M60 55.5C57.5147 55.5 55.5 57.5147 55.5 60C55.5 62.4853 57.5147 64.5 60 64.5C62.4853 64.5 64.5 62.4853 64.5 60C64.5 57.5147 62.4853 55.5 60 55.5ZM52.5 60C52.5 55.8579 55.8579 52.5 60 52.5C64.1421 52.5 67.5 55.8579 67.5 60C67.5 64.1421 64.1421 67.5 60 67.5C55.8579 67.5 52.5 64.1421 52.5 60Z"
        fill="#6E51C5" />
</svg>